<?xml version="1.0" encoding="UTF-8" standalone="no"?>
<svg
   xmlns:dc="http://purl.org/dc/elements/1.1/"
   xmlns:cc="http://web.resource.org/cc/"
   xmlns:rdf="http://www.w3.org/1999/02/22-rdf-syntax-ns#"
   xmlns:svg="http://www.w3.org/2000/svg"
   xmlns="http://www.w3.org/2000/svg"
   xmlns:sodipodi="http://sodipodi.sourceforge.net/DTD/sodipodi-0.dtd"
   xmlns:inkscape="http://www.inkscape.org/namespaces/inkscape"
   width="183pt"
   height="200pt"
   viewBox="0 0 183 200"
   version="1.1"
   id="svg2"
   sodipodi:version="0.32"
   inkscape:version="0.45.1"
   sodipodi:docname="Logo_FEE.svg"
   sodipodi:docbase="/home/jeoire/Desktop/ScoutWiki/images"
   inkscape:output_extension="org.inkscape.output.svg.inkscape">
  <metadata
     id="metadata331">
    <rdf:RDF>
      <cc:Work
         rdf:about="">
        <dc:format>image/svg+xml</dc:format>
        <dc:type
           rdf:resource="http://purl.org/dc/dcmitype/StillImage" />
      </cc:Work>
    </rdf:RDF>
  </metadata>
  <sodipodi:namedview
     inkscape:window-height="717"
     inkscape:window-width="1002"
     inkscape:pageshadow="2"
     inkscape:pageopacity="0.0"
     guidetolerance="10.0"
     gridtolerance="10.0"
     objecttolerance="10.0"
     borderopacity="1.0"
     bordercolor="#666666"
     pagecolor="#ffffff"
     id="base"
     inkscape:zoom="4.2539544"
     inkscape:cx="114.375"
     inkscape:cy="68.581906"
     inkscape:window-x="0"
     inkscape:window-y="27"
     inkscape:current-layer="svg2" />
  <defs
     id="defs4">
    <clipPath
       id="clip0">
      <rect
         width="183"
         height="200"
         id="rect7" />
    </clipPath>
  </defs>
  <path
     sodipodi:type="arc"
     style="fill:#ffffff;fill-opacity:1;stroke:none;stroke-width:2.11400008;stroke-linecap:round;stroke-linejoin:miter;stroke-miterlimit:4;stroke-dasharray:none;stroke-opacity:1"
     id="path2643"
     sodipodi:cx="85.106384"
     sodipodi:cy="82.712769"
     sodipodi:rx="79.255318"
     sodipodi:ry="77.925529"
     d="M 164.3617 82.712769 A 79.255318 77.925529 0 1 1  5.8510666,82.712769 A 79.255318 77.925529 0 1 1  164.3617 82.712769 z"
     transform="matrix(1.0067114,0,0,1.0068259,6.8756247,9.5417908)" />
  <path
     transform="matrix(0.3154363,0,0,0.1638224,65.707556,155.59872)"
     d="M 164.3617 82.712769 A 79.255318 77.925529 0 1 1  5.8510666,82.712769 A 79.255318 77.925529 0 1 1  164.3617 82.712769 z"
     sodipodi:ry="77.925529"
     sodipodi:rx="79.255318"
     sodipodi:cy="82.712769"
     sodipodi:cx="85.106384"
     id="path3614"
     style="fill:#ffffff;fill-opacity:1;stroke:none;stroke-width:2.11400008;stroke-linecap:round;stroke-linejoin:miter;stroke-miterlimit:4;stroke-dasharray:none;stroke-opacity:1"
     sodipodi:type="arc" />
  <path
     id="path52"
     d="M 48.343842,27.498672 C 50.001007,26.537338 51.737183,25.720245 53.408768,24.782776 C 53.149734,27.276642 53.308517,29.957092 52.190018,32.262115 C 50.711288,33.484207 48.901245,34.184219 47.182999,34.98938 C 47.312027,32.497879 46.956985,29.700989 48.343842,27.498672 z "
     style="fill:#076305;fill-rule:nonzero;stroke:none" />
  <path
     id="path60"
     d="M 40.972946,33.224533 C 42.479324,31.453568 44.53595,30.266663 46.445648,28.984634 C 45.998352,31.828903 46.798737,35.374176 44.517715,37.584869 C 43.212677,39.015884 41.736816,40.275925 40.254074,41.516647 C 40.209473,38.751663 39.918289,35.854767 40.972946,33.224533 z "
     style="fill:#076305;fill-rule:nonzero;stroke:none" />
  <path
     id="path76"
     d="M 33.816177,39.973373 C 34.909409,37.549911 37.436279,36.230896 39.423004,34.629257 C 39.642334,39.526825 38.748596,44.570251 34.945129,47.984695 C 34.541016,47.88765 33.732758,47.693542 33.328629,47.596497 C 32.922501,45.062515 33.191193,42.44812 33.816177,39.973373 z "
     style="fill:#076305;fill-rule:nonzero;stroke:none" />
  <path
     id="path84"
     d="M 28.346512,46.433502 C 29.222443,44.997925 30.35524,43.743835 31.408905,42.440598 C 31.76915,45.519119 33.824478,48.967438 31.962952,51.881683 C 31.057693,53.353088 29.773895,54.53624 28.613083,55.799789 C 28.057297,52.713531 27.941269,49.54425 28.346512,46.433502 z "
     style="fill:#076305;fill-rule:nonzero;stroke:none" />
  <path
     id="path92"
     d="M 21.542068,57.073761 C 22.763367,54.415375 24.581238,52.092987 26.272064,49.725372 C 26.826889,52.451599 27.613586,55.144257 27.919403,57.915161 C 27.139267,60.504395 25.608002,62.780853 24.020828,64.939316 C 23.067398,62.366959 21.810486,59.83876 21.542068,57.073761 z "
     style="fill:#076305;fill-rule:nonzero;stroke:none" />
  <path
     id="path108"
     d="M 20.297607,59.976929 C 21.555969,61.88765 23.016479,63.784271 23.504196,66.069778 C 23.911224,68.867401 22.169617,71.271667 20.751175,73.499054 C 19.682373,71.652252 18.40834,69.899429 17.641251,67.896942 C 17.786575,65.074112 19.326263,62.570618 20.297607,59.976929 z "
     style="fill:#076305;fill-rule:nonzero;stroke:none" />
  <path
     id="path116"
     d="M 16.517639,70.34169 C 18.00293,71.811386 19.819672,73.167984 20.533463,75.21225 C 20.379135,77.380692 19.748932,79.480682 19.329224,81.607452 C 17.970901,80.092407 16.496506,78.65477 15.398575,76.93103 C 15.34137,74.686554 16.054825,72.512909 16.517639,70.34169 z "
     style="fill:#076305;fill-rule:nonzero;stroke:none" />
  <path
     id="path128"
     d="M 13.912918,79.321838 C 15.604401,80.529221 17.23526,81.872635 18.488373,83.54689 C 18.89241,85.743668 18.483841,87.988373 18.300018,90.189194 C 14.280121,88.055145 13.13829,83.537521 13.912918,79.321838 z "
     style="fill:#076305;fill-rule:nonzero;stroke:none" />
  <path
     id="path136"
     d="M 13.272491,88.597992 C 15.107101,89.342682 16.900772,90.183395 18.657974,91.097122 C 18.878357,94.028214 18.886978,96.970688 18.748352,99.907562 C 16.787491,98.609818 14.990158,97.092331 13.10376,95.694794 C 13.13562,93.327927 13.184937,90.961746 13.272491,88.597992 z "
     style="fill:#076305;fill-rule:nonzero;stroke:none" />
  <path
     id="path144"
     d="M 13.486374,97.684799 C 15.455536,99.306274 17.632584,100.73569 19.299011,102.69032 C 19.664337,104.49727 19.620804,106.35318 19.690186,108.18903 C 18.023102,107.30019 16.286636,106.47873 14.870468,105.20375 C 13.600784,102.92633 13.711761,100.2038 13.486374,97.684799 z "
     style="fill:#076305;fill-rule:nonzero;stroke:none" />
  <path
     id="path156"
     d="M 15.153687,107.70061 C 16.914154,108.58431 18.783646,109.33112 20.316971,110.59898 C 21.555527,112.47194 21.674637,114.85011 22.350311,116.95613 C 20.247086,116.18986 17.182098,116.43875 16.04155,114.15305 C 15.387054,112.07063 15.405838,109.8503 15.153687,107.70061 z "
     style="fill:#076305;fill-rule:nonzero;stroke:none" />
  <path
     id="path172"
     d="M 17.290527,118.49966 C 19.022491,118.41733 20.768448,118.30991 22.495483,118.5238 C 24.082642,120.53125 24.841888,123.03059 25.86293,125.3446 C 23.885452,124.9976 21.767029,124.98767 19.945145,124.06703 C 18.683136,122.41582 18.065094,120.39726 17.290527,118.49966 z "
     style="fill:#076305;fill-rule:nonzero;stroke:none" />
  <path
     id="path180"
     d="M 20.561493,126.54479 C 22.456329,126.58669 24.351135,126.63618 26.246948,126.66487 C 27.567673,128.68913 28.911438,130.6992 30.216553,132.73555 C 28.10762,132.59488 25.848389,132.97676 23.862457,132.09447 C 22.504532,130.41122 21.592392,128.42946 20.561493,126.54479 z "
     style="fill:#076305;fill-rule:nonzero;stroke:none" />
  <path
     id="path188"
     d="M 24.895081,134.54028 C 27.01123,134.10735 29.335266,133.21777 31.309372,134.59933 C 33.14006,136.35851 34.507492,138.52429 35.984573,140.5744 C 31.28717,141.81604 27.116547,138.38071 24.895081,134.54028 z "
     style="fill:#076305;fill-rule:nonzero;stroke:none" />
  <path
     id="path196"
     d="M 30.416245,141.88005 C 32.534439,141.79152 34.674057,141.64233 36.782715,141.95114 C 38.428268,142.9447 39.821335,144.28893 41.31012,145.49545 C 39.150192,146.09946 36.940704,146.48747 34.727005,146.83041 C 33.20256,145.25708 31.746368,143.61937 30.416245,141.88005 z "
     style="fill:#076305;fill-rule:nonzero;stroke:none" />
  <path
     id="path204"
     d="M 35.835098,148.31047 C 38.080658,147.93749 40.327393,147.09396 42.624939,147.29616 C 44.180099,148.32466 45.577881,149.56709 47.018539,150.74994 C 44.875549,151.17935 42.705765,151.94218 40.495224,151.67731 C 38.740005,150.88197 37.367813,149.44858 35.835098,148.31047 z "
     style="fill:#076305;fill-rule:nonzero;stroke:none" />
  <path
     id="path212"
     d="M 41.755707,153.80852 C 44.225128,152.63209 46.976547,151.06044 49.784988,151.95407 C 51.479218,152.92598 53.031052,154.12254 54.602295,155.28041 C 52.761459,156.18957 50.986389,157.47075 48.868134,157.59786 C 45.900894,158.1581 43.993469,155.2327 41.755707,153.80852 z "
     style="fill:#076305;fill-rule:nonzero;stroke:none" />
  <path
     id="path224"
     d="M 50.025406,158.99516 C 52.010849,158.08951 54.004333,157.20267 56.011887,156.34779 C 58.192413,157.53867 60.40271,158.67552 62.622437,159.79524 C 60.43277,160.6786 58.373352,162.16048 55.976227,162.36469 C 53.8013,161.61627 51.913574,160.26772 50.025406,158.99516 z "
     style="fill:#076305;fill-rule:nonzero;stroke:none" />
  <path
     id="path248"
     d="M 57.940613,163.01625 C 60.607468,162.06538 63.217239,160.95996 65.908173,160.07617 C 65.624252,162.15048 65.029739,164.1608 64.388092,166.15068 C 62.193893,165.19971 60.046188,164.14561 57.940613,163.01625 z "
     style="fill:#076305;fill-rule:nonzero;stroke:none" />
  <path
     id="path276"
     d="M 109.46141,171.30371 C 112.52153,170.79778 115.0229,172.4133 116.58685,174.94736 C 113.97717,174.25436 111.58986,172.94235 109.46141,171.30371 z "
     style="fill:#076305;fill-rule:nonzero;stroke:none" />
  <path
     id="path272"
     d="M 111.35231,168.96759 C 113.32922,168.85469 115.31076,168.8671 117.29277,168.84358 C 116.862,169.43929 116.00046,170.63066 115.56969,171.22635 C 113.92212,171.39749 112.73083,169.65875 111.35231,168.96759 z "
     style="fill:#076305;fill-rule:nonzero;stroke:none" />
  <path
     id="path288"
     d="M 92.125992,172.15239 C 94.846939,171.87706 97.584473,171.856 100.31792,171.90724 C 99.706528,172.92821 99.094955,173.95048 98.483185,174.97406 C 96.3367,174.09535 94.183014,173.22389 92.125992,172.15239 z "
     style="fill:#076305;fill-rule:nonzero;stroke:none" />
  <path
     id="path292"
     d="M 99.277756,175.57564 C 100.71281,174.38672 102.03061,172.78543 103.9561,172.43314 C 106.20712,172.39029 108.36356,173.19939 110.54097,173.67328 C 108.95711,174.84113 107.61293,176.43105 105.76102,177.1848 C 103.49535,177.2775 101.39578,176.215 99.277756,175.57564 z "
     style="fill:#076305;fill-rule:nonzero;stroke:none" />
  <path
     id="path304"
     d="M 107.5081,178.06436 C 108.95143,177.02139 110.23055,175.64308 111.94727,175.05006 C 114.7411,175.59575 117.46564,176.48347 120.04971,177.68335 C 118.54941,178.40472 117.07628,179.19473 115.51196,179.77035 C 112.75113,179.91338 110.15984,178.65167 107.5081,178.06436 z "
     style="fill:#076305;fill-rule:nonzero;stroke:none" />
  <path
     id="path320"
     d="M 95.557861,181.2014 C 98.635559,179.29239 101.94579,177.62489 105.62904,178.90122 C 104.03449,183.12122 98.970322,182.88762 95.557861,181.2014 z "
     style="fill:#076305;fill-rule:nonzero;stroke:none" />
  <path
     id="path300"
     d="M 89.031982,174.63664 C 92.916718,173.93156 96.284195,176.03569 99.526108,177.83427 C 97.474548,178.70254 95.409805,179.74927 93.149063,179.88853 C 91.403732,179.38486 89.804794,178.50264 88.157867,177.7623 C 88.442032,176.71649 88.733414,175.67462 89.031982,174.63664 z "
     style="fill:#076305;fill-rule:nonzero;stroke:none" />
  <path
     id="path316"
     d="M 81.14711,183.32912 C 82.263184,181.44157 83.523926,179.64861 84.836273,177.89606 C 86.894272,178.89215 88.891403,180.00993 90.803497,181.26912 C 87.733154,182.53442 84.48851,183.3788 81.14711,183.32912 z "
     style="fill:#076305;fill-rule:nonzero;stroke:none" />
  <path
     id="path312"
     d="M 72.541519,180.11388 C 75.609848,178.27828 79.142654,178.15111 82.612427,178.31433 C 81.491287,180.08279 80.357056,181.84384 79.194946,183.5878 C 76.873978,182.63567 74.5784,181.59473 72.541519,180.11388 z "
     style="fill:#076305;fill-rule:nonzero;stroke:none" />
  <path
     id="path296"
     d="M 62.642044,182.21106 C 63.388229,179.46146 63.880707,176.64787 64.753006,173.93445 C 66.06282,175.77502 67.260071,177.6947 68.406921,179.64355 C 66.466385,180.45642 64.54808,181.32002 62.642044,182.21106 z "
     style="fill:#076305;fill-rule:nonzero;stroke:none" />
  <path
     id="path306"
     d="M 52.592987,180.5072 C 56.794678,181.37172 58.949402,176.83566 62.47995,175.45007 C 62.297409,177.72099 62.120895,180.03783 61.31366,182.19339 C 59.568466,183.6245 57.465591,184.50565 55.550232,185.67467 C 55.599335,184.5051 55.645233,183.33768 55.687912,182.17244 C 54.715576,182.28345 52.770905,182.50548 51.798569,182.61649 C 51.997177,182.08916 52.394379,181.03453 52.592987,180.5072 z "
     style="fill:none;stroke:#076305;stroke-width:0.1;stroke-linecap:butt;stroke-linejoin:miter;stroke-miterlimit:10" />
  <path
     id="path308"
     d="M 52.592987,180.5072 C 56.794678,181.37172 58.949402,176.83566 62.47995,175.45007 C 62.297409,177.72099 62.120895,180.03783 61.31366,182.19339 C 59.568466,183.6245 57.465591,184.50565 55.550232,185.67467 C 55.599335,184.5051 55.645233,183.33768 55.687912,182.17244 C 54.715576,182.28345 52.770905,182.50548 51.798569,182.61649 C 51.997177,182.08916 52.394379,181.03453 52.592987,180.5072 z "
     style="fill:#076305;fill-rule:nonzero;stroke:none" />
  <path
     id="path284"
     d="M 78.614426,176.53993 C 79.902008,174.75575 81.235626,173.00505 82.671646,171.33852 C 84.90918,172.0416 87.125259,172.81908 89.271423,173.77531 C 87.755386,174.88384 86.291168,176.09221 84.609879,176.95026 C 82.634552,177.48897 80.591263,176.71481 78.614426,176.53993 z "
     style="fill:#076305;fill-rule:nonzero;stroke:none" />
  <path
     id="path252"
     d="M 68.916824,162.03214 C 70.120621,163.52927 71.401306,164.98514 72.399567,166.63737 C 72.637695,168.18605 72.319199,169.73721 72.200439,171.28284 C 71.688248,171.558 70.663895,172.10829 70.151703,172.38344 C 72.547791,173.28332 74.365829,175.10068 75.880692,177.11057 C 74.214798,177.9857 72.524841,178.81418 70.817398,179.60571 C 69.692032,177.69132 67.686279,175.80479 68.551224,173.38231 C 69.210983,171.45605 68.063934,169.72977 67.462494,167.97769 C 67.440247,165.90581 68.330688,163.97639 68.916824,162.03214 z "
     style="fill:#076305;fill-rule:nonzero;stroke:none" />
  <path
     id="path228"
     d="M 70.724609,159.14679 C 72.372711,157.90697 74.333252,157.20108 76.220276,156.41893 C 76.83049,159.90764 75.664047,163.03465 72.857376,165.19345 C 71.691437,163.35794 70.378845,161.43957 70.724609,159.14679 z "
     style="fill:#076305;fill-rule:nonzero;stroke:none" />
  <path
     id="path216"
     d="M 78.027863,155.7625 C 82.3759,155.40933 86.243896,157.61215 90.282776,158.8215 C 88.256836,159.65172 86.212616,160.43506 84.156616,161.18626 C 84.363266,160.30168 84.776566,158.53253 84.983215,157.64795 C 82.576141,159.47119 79.930328,160.97559 76.809509,160.80772 C 77.183594,159.1169 77.602463,157.43788 78.027863,155.7625 z "
     style="fill:#076305;fill-rule:nonzero;stroke:none" />
  <path
     id="path256"
     d="M 74.512512,168.20544 C 75.219208,164.80692 77.916107,162.47426 81.468277,162.76727 C 79.297409,164.76129 76.929688,166.52342 74.512512,168.20544 z "
     style="fill:#076305;fill-rule:nonzero;stroke:none" />
  <path
     id="path264"
     d="M 77.192703,169.16505 C 79.287292,165.02988 83.741058,163.24222 88.196381,163.35437 C 87.005554,165.08673 85.87822,166.93028 84.24321,168.29118 C 81.919006,168.75615 79.54184,168.88332 77.192703,169.16505 z "
     style="fill:#076305;fill-rule:nonzero;stroke:none" />
  <path
     id="path240"
     d="M 89.576248,162.51636 C 91.464706,160.95821 93.739761,159.97531 95.8741,158.80959 C 95.365677,160.92644 94.799957,163.03099 94.33815,165.16126 C 91.894226,166.15836 89.520584,167.317 87.071411,168.30106 C 87.914566,166.37537 88.666565,164.40999 89.576248,162.51636 z "
     style="fill:#076305;fill-rule:nonzero;stroke:none" />
  <path
     id="path232"
     d="M 99.190842,157.55432 C 101.66232,157.2478 104.13106,156.91293 106.61443,156.69765 C 103.81804,160.312 99.884003,162.69923 95.664276,164.306 C 96.732025,161.99953 97.943314,159.7659 99.190842,157.55432 z "
     style="fill:#076305;fill-rule:nonzero;stroke:none" />
  <path
     id="path236"
     d="M 103.94565,161.59973 C 105.55713,159.99008 107.20132,158.41261 108.94348,156.94479 C 110.59746,158.106 112.21098,159.32842 113.69908,160.7032 C 110.62454,162.15801 107.23233,162.19623 103.94565,161.59973 z "
     style="fill:#076305;fill-rule:nonzero;stroke:none" />
  <path
     id="path268"
     d="M 95.18866,168.30968 C 97.932495,165.67865 101.43697,163.94954 105.31529,164.18552 C 104.93179,165.662 104.52148,167.1337 104.09119,168.60033 C 101.12116,168.58862 98.144119,168.64188 95.18866,168.30968 z "
     style="fill:#076305;fill-rule:nonzero;stroke:none" />
  <path
     id="path260"
     d="M 105.22134,167.08707 C 106.90036,163.54172 111.05597,163.5347 114.41553,163.00757 C 113.40865,164.76241 112.51355,166.62978 111.11534,168.11902 C 109.17429,168.45711 106.05843,169.6441 105.22134,167.08707 z "
     style="fill:#076305;fill-rule:nonzero;stroke:none" />
  <path
     id="path244"
     d="M 116.86433,161.96089 C 118.79773,160.74589 121.09055,160.44833 123.3168,160.23465 C 122.38211,161.96335 121.58199,163.79179 120.36713,165.35156 C 118.50189,166.60786 116.16803,166.74089 114.05701,167.33881 C 114.92357,165.51851 115.55696,163.52658 116.86433,161.96089 z "
     style="fill:#076305;fill-rule:nonzero;stroke:none" />
  <path
     id="path220"
     d="M 123.30092,163.78131 C 125.25676,160.2572 128.1301,157.22397 131.6839,155.28947 C 131.52666,156.82472 131.45097,158.38521 131.05011,159.88673 C 128.99321,162.03499 126.04352,162.88976 123.30092,163.78131 z "
     style="fill:#076305;fill-rule:nonzero;stroke:none" />
  <path
     id="path208"
     d="M 134.63719,152.75617 C 135.84639,151.94132 137.16132,151.30283 138.44759,150.61957 C 138.44739,152.35185 138.63806,154.12679 138.19544,155.82942 C 136.65248,157.6385 134.47172,158.70303 132.49324,159.94798 C 133.04736,157.55039 132.06587,154.18214 134.63719,152.75617 z "
     style="fill:#076305;fill-rule:nonzero;stroke:none" />
  <path
     id="path200"
     d="M 139.68573,148.85921 C 141.12796,147.59236 142.58028,146.33691 144.07524,145.13191 C 144.27878,147.18668 145.95863,149.51407 144.54396,151.43648 C 143.11604,152.99576 141.33299,154.16426 139.65831,155.4339 C 139.74258,153.24142 139.78807,151.04868 139.68573,148.85921 z "
     style="fill:#076305;fill-rule:nonzero;stroke:none" />
  <path
     id="path192"
     d="M 146.06981,143.08057 C 147.35751,141.66109 148.63443,140.23212 149.93509,138.82452 C 150.88722,140.38879 151.87326,141.93428 152.90671,143.45076 C 150.90985,145.5551 148.86859,147.62032 146.63913,149.48158 C 146.49133,147.34164 146.3335,145.2061 146.06981,143.08057 z "
     style="fill:#076305;fill-rule:nonzero;stroke:none" />
  <path
     id="path184"
     d="M 151.56229,136.77838 C 152.16467,134.42238 154.30008,132.78863 155.80417,130.95573 C 156.62575,132.84589 157.38409,134.76474 158.1059,136.69826 C 156.67699,138.53474 155.28253,140.39752 153.84944,142.23111 C 153.04677,140.42871 152.19957,138.64386 151.56229,136.77838 z "
     style="fill:#076305;fill-rule:nonzero;stroke:none" />
  <path
     id="path176"
     d="M 156.6086,129.15733 C 157.36507,127.125 158.36778,125.19604 159.31502,123.24962 C 160.48282,124.63995 161.71197,126.01311 162.55666,127.63867 C 163.18152,130.59938 160.48961,132.77287 159.01048,134.9819 C 158.22984,133.03046 157.25772,131.15559 156.6086,129.15733 z "
     style="fill:#076305;fill-rule:nonzero;stroke:none" />
  <path
     id="path168"
     d="M 162.43015,115.56831 C 163.99838,117.01433 165.54532,118.48523 167.06133,119.99014 C 166.04074,122.38895 165.09424,124.81804 164.09833,127.22784 C 162.84724,125.10992 161.56744,123.01296 160.32811,120.89145 C 161.02916,119.11676 161.72455,117.34016 162.43015,115.56831 z "
     style="fill:#076305;fill-rule:nonzero;stroke:none" />
  <path
     id="path164"
     d="M 163.30978,113.57158 C 163.25552,111.72865 163.91556,109.9727 164.38135,108.21903 C 166.21344,109.29954 168.0018,110.4577 169.76485,111.65379 C 169.22069,113.84512 168.63611,116.02553 168.06543,118.21135 C 166.32295,116.84907 164.43803,115.52205 163.30978,113.57158 z "
     style="fill:#076305;fill-rule:nonzero;stroke:none" />
  <path
     id="path148"
     d="M 165.687,99.592987 C 167.45636,100.68512 169.18927,101.83615 170.93326,102.97315 C 170.82153,105.17918 170.64391,107.3819 170.38818,109.57808 C 168.59769,108.74995 166.87804,107.7861 165.15984,106.82642 C 165.30264,104.41217 165.48624,102.0013 165.687,99.592987 z "
     style="fill:#076305;fill-rule:nonzero;stroke:none" />
  <path
     id="path140"
     d="M 166.57935,91.421555 C 168.4617,92.505447 170.67956,93.280121 172.021,95.083786 C 172.23061,97.2845 172.13406,99.499908 172.15642,101.70935 C 170.10635,100.41215 168.08206,99.078766 166.01648,97.811432 C 166.20734,95.680984 166.39177,93.550476 166.57935,91.421555 z "
     style="fill:#076305;fill-rule:nonzero;stroke:none" />
  <path
     id="path132"
     d="M 165.57033,82.884125 C 167.7468,83.845078 170.17003,84.623978 171.80052,86.457565 C 172.59909,88.561493 172.26157,90.86554 172.22018,93.060532 C 169.9877,91.661118 167.72865,90.306839 165.44981,88.989151 C 165.44833,86.952698 165.48535,84.916611 165.57033,82.884125 z "
     style="fill:#076305;fill-rule:nonzero;stroke:none" />
  <path
     id="path124"
     d="M 164.166,75.358658 C 166.19978,75.393494 168.23457,75.473145 170.26808,75.598053 C 170.91316,78.539139 171.63528,81.462845 172.26543,84.408783 C 169.96742,83.264938 167.30244,82.503494 165.55064,80.53241 C 164.89175,78.86557 164.56749,77.096069 164.166,75.358658 z "
     style="fill:#076305;fill-rule:nonzero;stroke:none" />
  <path
     id="path112"
     d="M 161.61221,67.559677 C 163.85187,67.687302 166.09329,67.862747 168.32364,68.135986 C 168.85672,70.192291 169.42317,72.240936 169.87866,74.318619 C 167.85245,74.146301 165.66589,74.444351 163.81682,73.425888 C 162.96439,71.516159 162.34483,69.513916 161.61221,67.559677 z "
     style="fill:#076305;fill-rule:nonzero;stroke:none" />
  <path
     id="path104"
     d="M 158.97961,59.273972 C 161.40352,59.731918 164.24464,59.908844 166.00322,61.873047 C 166.93288,63.363297 167.33504,65.102402 167.93311,66.739548 C 165.5782,66.401001 163.25369,65.908432 160.93195,65.413223 C 160.19231,63.395386 159.52982,61.350021 158.97961,59.273972 z "
     style="fill:#076305;fill-rule:nonzero;stroke:none" />
  <path
     id="path96"
     d="M 154.57573,51.644897 C 157.08971,52.208359 159.74657,52.554871 161.99591,53.906738 C 162.82552,55.342743 163.38705,56.911392 164.02537,58.439957 C 161.6292,58.134949 159.25323,57.718048 156.87854,57.297867 C 156.06477,55.431747 155.27686,53.554474 154.57573,51.644897 z "
     style="fill:#076305;fill-rule:nonzero;stroke:none" />
  <path
     id="path88"
     d="M 149.94031,45.663879 C 151.85208,45.271332 153.76798,44.658966 155.74707,44.801208 C 157.43286,46.344131 158.5613,48.362457 159.77155,50.274277 C 155.66264,51.385773 151.55537,49.601181 149.94031,45.663879 z "
     style="fill:#076305;fill-rule:nonzero;stroke:none" />
  <path
     id="path80"
     d="M 143.37888,39.360229 C 144.95178,38.822144 146.51282,38.23027 148.12784,37.813995 C 150.73116,38.171265 152.26431,40.567474 153.48074,42.657242 C 151.83434,43.034393 150.18611,43.754837 148.46677,43.525177 C 146.62115,42.33078 145.01875,40.810425 143.37888,39.360229 z "
     style="fill:#076305;fill-rule:nonzero;stroke:none" />
  <path
     id="path72"
     d="M 135.84952,33.252747 C 138.22989,32.686752 140.62271,32.171341 143.02438,31.693298 C 144.57439,33.234985 146.0939,34.808197 147.58311,36.411133 C 145.68912,36.814316 143.81612,37.340317 141.88884,37.541718 C 139.57648,36.576904 137.70329,34.885864 135.84952,33.252747 z "
     style="fill:#076305;fill-rule:nonzero;stroke:none" />
  <path
     id="path56"
     d="M 129.20203,28.786194 C 131.16356,27.960831 133.14075,27.170792 135.1308,26.410843 C 136.98187,27.555115 138.81445,28.730545 140.6214,29.947235 C 138.42513,30.759521 136.23581,31.586838 134.02515,32.35376 C 132.40657,31.177567 130.80041,29.985748 129.20203,28.786194 z "
     style="fill:#076305;fill-rule:nonzero;stroke:none" />
  <path
     id="path48"
     d="M 120.79729,24.883301 C 122.44041,24.117752 124.04518,23.134171 125.87318,22.876831 C 127.90285,23.383469 129.84303,24.179321 131.81183,24.881012 C 130.24657,25.818726 128.74994,26.910309 127.04997,27.592148 C 124.84158,27.011169 122.84624,25.851654 120.79729,24.883301 z "
     style="fill:#076305;fill-rule:nonzero;stroke:none" />
  <path
     id="path40"
     d="M 118.38927,19.001282 C 120.32521,19.256195 122.15401,19.997574 124.02414,20.533661 C 122.34645,21.834564 120.71339,23.212769 118.86314,24.266022 C 116.98045,23.873459 115.18129,23.17334 113.37199,22.542862 C 115.00418,21.310028 116.61423,20.029999 118.38927,19.001282 z "
     style="fill:#076305;fill-rule:nonzero;stroke:none" />
  <path
     id="path32"
     d="M 105.47555,21.03009 C 106.86295,19.332428 108.34518,17.715607 109.88788,16.157059 C 111.8196,16.758728 113.73691,17.407089 115.65628,18.054489 C 114.40543,19.302795 113.47136,21.08284 111.75468,21.735306 C 109.64287,21.729462 107.56389,21.277863 105.47555,21.03009 z "
     style="fill:#076305;fill-rule:nonzero;stroke:none" />
  <path
     id="path24"
     d="M 102.19174,15.45195 C 103.79221,15.519073 105.37219,15.812103 106.96175,16.008835 C 105.89314,17.535797 104.82495,19.062317 103.74341,20.579224 C 101.63464,20.30249 99.527969,20.01358 97.425659,19.704422 C 98.921768,18.203125 100.24841,16.40831 102.19174,15.45195 z "
     style="fill:#076305;fill-rule:nonzero;stroke:none" />
  <path
     id="path20"
     d="M 92.272705,15.121857 C 94.391586,14.689667 96.574295,14.930832 98.721573,14.914139 C 97.48941,16.606934 96.344849,18.41124 94.763153,19.805756 C 92.447037,20.308273 90.054001,20.128372 87.704559,20.201401 C 88.961136,18.319672 90.127975,16.127609 92.272705,15.121857 z "
     style="fill:#076305;fill-rule:nonzero;stroke:none" />
  <path
     id="path16"
     d="M 82.733017,15.524445 C 84.848785,15.445618 86.963348,15.341705 89.079971,15.244095 C 87.827347,16.948257 86.573654,18.650574 85.361649,20.383133 C 83.024704,20.642914 80.707123,21.039368 78.384552,21.390411 C 79.87767,19.46814 81.375381,17.547028 82.733017,15.524445 z "
     style="fill:#076305;fill-rule:nonzero;stroke:none" />
  <path
     id="path28"
     d="M 73.82637,17.05336 C 75.769119,16.163071 77.975235,16.454361 80.048447,16.318298 C 77.816956,20.548248 73.963638,23.652313 69.016495,23.782196 C 70.41066,21.467682 70.925858,17.981354 73.82637,17.05336 z "
     style="fill:#076305;fill-rule:nonzero;stroke:none" />
  <path
     id="path36"
     d="M 63.286316,20.31839 C 65.167847,18.965363 67.530334,18.568726 69.720734,17.962402 C 69.146637,20.195801 68.435333,22.389832 67.671692,24.564758 C 65.434021,25.447342 63.219849,26.387619 60.968063,27.232407 C 61.405655,24.856796 61.618347,22.212418 63.286316,20.31839 z "
     style="fill:#076305;fill-rule:nonzero;stroke:none" />
  <path
     id="path44"
     d="M 55.294952,24.313126 C 56.821747,22.56691 59.155334,21.940704 61.19722,21.017532 C 60.694046,23.487473 60.202286,25.959808 59.666534,28.423141 C 57.914246,29.134171 56.116257,29.718018 54.318909,30.299408 C 54.383743,28.317719 53.581787,25.827286 55.294952,24.313126 z "
     style="fill:#076305;fill-rule:nonzero;stroke:none" />
  <path
     id="path120"
     d="M 129.64737,75.681641 C 138.23599,73.206314 148.44406,77.386566 152.2812,85.588409 C 153.81288,90.44574 154.43153,96.168777 151.6635,100.71991 C 150.37752,103.03325 148.08682,104.49461 145.92041,105.88368 C 145.36986,99.34288 143.57536,92.028122 137.89055,88.037628 C 133.52945,85.226791 128.1461,83.37825 122.94275,84.573196 C 117.94902,85.697449 113.12334,87.449387 108.42169,89.454041 C 113.06111,82.087234 121.16806,77.212463 129.64737,75.681641 z "
     style="fill:#076305;fill-rule:nonzero;stroke:none" />
  <path
     id="path68"
     d="M 94.714584,34.924957 C 101.84824,31.158173 110.58096,29.815475 118.16718,33.036194 C 123.39314,35.390457 127.18459,40.447144 128.39056,46.004807 C 129.51587,53.893097 126.16635,61.568634 122.22555,68.192001 C 117.02336,75.121796 112.9675,82.988144 106.56348,88.942047 C 108.93574,78.157211 112.82713,67.763641 115.29855,57.00943 C 115.40169,53.577835 116.30711,49.176788 113.20143,46.746475 C 107.43091,42.227478 100.73456,39.084122 94.714584,34.924957 z "
     style="fill:#076305;fill-rule:nonzero;stroke:none" />
  <path
     id="path64"
     d="M 72.731506,30.81723 C 80.067276,28.920898 87.664719,31.157928 94.063385,34.858704 C 88.227936,38.144577 82.225433,41.138092 76.438736,44.499298 C 73.339127,46.126953 72.163727,49.655914 71.628281,52.889114 C 73.453003,63.941132 75.863724,74.905457 78.623322,85.760269 C 71.872086,86.504333 65.678268,82.829605 58.938278,83.487915 C 54.057953,83.215866 49.460175,85.771118 46.125793,89.157501 C 42.118256,93.292755 40.893997,99.177856 40.248611,104.69881 C 30.620499,97.917725 30.919083,81.255554 41.151169,75.156754 C 51.8349,69.161972 66.099075,73.394714 73.315811,82.838882 C 74.05275,83.609131 74.642319,84.874252 75.875854,84.845917 C 70.734009,76.114151 64.949112,67.605499 61.107376,58.150864 C 59.527573,53.521545 57.927032,48.420044 59.832214,43.624512 C 61.272614,37.248734 66.795929,32.864899 72.731506,30.81723 z "
     style="fill:#076305;fill-rule:nonzero;stroke:none" />
  <path
     id="path100"
     d="M 92.686935,68.635574 C 92.996796,64.168869 92.567078,59.533813 94.239761,55.276382 C 94.814499,59.825043 94.388184,64.41481 94.600708,68.981277 C 95.525543,80.291611 95.908325,91.646729 95.741653,102.99608 C 95.9991,113.9913 96.453506,124.97791 96.640823,135.9749 C 97.101517,140.07425 97.339508,144.21297 96.84938,148.32437 C 93.800003,148.71168 90.668427,149.33174 87.630447,148.51993 C 88.834991,134.03178 89.169968,119.48767 90.621765,105.01808 C 90.815979,100.37231 90.317123,95.691696 91.025024,91.075134 C 92.385391,83.675476 92.145706,76.11377 92.686935,68.635574 z "
     style="fill:#076305;fill-rule:nonzero;stroke:none" />
  <path
     id="path152"
     d="M 34.738266,114.53439 C 35.808609,110.89294 38.061783,107.78964 40.259293,104.75668 C 41.125305,112.48802 43.955338,120.85065 50.874878,125.18704 C 56.833801,129.35687 64.556778,130.1864 71.490387,128.32788 C 69.061401,125.99239 66.356415,123.47206 65.903503,119.93446 C 65.492493,115.80176 68.116257,111.63608 71.913254,110.00679 C 75.41391,107.47925 79.813812,109.96027 82.634384,112.36903 C 86.816208,116.69763 85.011307,123.38914 81.591309,127.55832 C 76.246216,133.71178 67.933472,136.32384 60.003983,136.67007 C 52.246353,137.48288 43.594482,135.89412 38.165207,129.8717 C 35.356781,125.37872 33.491119,119.84718 34.738266,114.53439 z "
     style="fill:#076305;fill-rule:nonzero;stroke:none" />
  <path
     id="path160"
     d="M 145.86264,107.35768 C 151.5849,111.67262 152.53516,119.76535 150.19989,126.1658 C 148.75203,130.93909 144.41631,134.01356 140.20969,136.23227 C 130.96817,140.1373 120.02719,139.39677 111.18961,134.75891 C 105.36241,131.24112 100.2456,125.19582 100.4258,118.04802 C 100.42311,111.80026 108.45532,106.52022 113.83275,110.26849 C 118.02272,111.98816 119.95329,117.21123 118.39442,121.35715 C 117.49054,124.79475 114.15915,126.5782 111.60432,128.67584 C 118.24805,131.15355 126.05981,131.57082 132.60802,128.62144 C 140.5734,124.46892 143.56529,115.41727 145.86264,107.35768 z "
     style="fill:#076305;fill-rule:nonzero;stroke:none" />
  <path
     id="path10"
     d="M 0,0 L 183,0 L 183,200 L 0,200 L 0,0 z "
     style="fill:none;stroke:#fdfdfd;stroke-width:0.1;stroke-linecap:butt;stroke-linejoin:miter;stroke-miterlimit:10" />
  <path
     id="path278"
     d="M 75.059982,171.86589 C 76.839447,171.84271 78.617691,171.75923 80.398468,171.71167 C 79.341248,173.04851 78.11615,174.2391 77.007416,175.53313 C 76.351181,174.3118 75.702042,173.08937 75.059982,171.86589 z "
     style="fill:none;stroke:#076305;stroke-width:0.1;stroke-linecap:butt;stroke-linejoin:miter;stroke-miterlimit:10" />
  <path
     id="path280"
     d="M 75.059982,171.86589 C 76.839447,171.84271 78.617691,171.75923 80.398468,171.71167 C 79.341248,173.04851 78.11615,174.2391 77.007416,175.53313 C 76.351181,174.3118 75.702042,173.08937 75.059982,171.86589 z "
     style="fill:#076305;fill-rule:nonzero;stroke:none" />
  <path
     id="path294"
     d="M 62.642044,182.21106 C 63.388229,179.46146 63.880707,176.64787 64.753006,173.93445 C 66.06282,175.77502 67.260071,177.6947 68.406921,179.64355 C 66.466385,180.45642 64.54808,181.32002 62.642044,182.21106 z "
     style="fill:none;stroke:#076305;stroke-width:0.1;stroke-linecap:butt;stroke-linejoin:miter;stroke-miterlimit:10" />
  <path
     id="path322"
     d="M 116.32886,180.93501 C 118.18947,180.0495 120.09621,179.2648 122.03877,178.57527 C 123.02002,179.9671 125.05348,181.04086 124.5768,183.01411 C 121.67569,184.88489 118.93012,182.02098 116.32886,180.93501 z "
     style="fill:none;stroke:#076305;stroke-width:0.1;stroke-linecap:butt;stroke-linejoin:miter;stroke-miterlimit:10" />
  <path
     id="path324"
     d="M 116.32886,180.93501 C 118.18947,180.0495 120.09621,179.2648 122.03877,178.57527 C 123.02002,179.9671 125.05348,181.04086 124.5768,183.01411 C 121.67569,184.88489 118.93012,182.02098 116.32886,180.93501 z "
     style="fill:#076305;fill-rule:nonzero;stroke:none" />
  <path
     id="path326"
     d="M 106.94487,179.7294 C 108.16756,180.44211 109.38141,181.16954 110.59215,181.91066 C 108.635,182.43863 106.67602,182.95656 104.71745,183.47429 C 105.45392,182.22095 106.1964,180.97264 106.94487,179.7294 z "
     style="fill:none;stroke:#076305;stroke-width:0.1;stroke-linecap:butt;stroke-linejoin:miter;stroke-miterlimit:10" />
  <path
     id="path328"
     d="M 106.94487,179.7294 C 108.16756,180.44211 109.38141,181.16954 110.59215,181.91066 C 108.635,182.43863 106.67602,182.95656 104.71745,183.47429 C 105.45392,182.22095 106.1964,180.97264 106.94487,179.7294 z "
     style="fill:#076305;fill-rule:nonzero;stroke:none" />
</svg>
