<?xml version="1.0" encoding="UTF-8" standalone="no"?>
<!-- Created with Inkscape (http://www.inkscape.org/) -->

<svg
   xmlns:dc="http://purl.org/dc/elements/1.1/"
   xmlns:cc="http://creativecommons.org/ns#"
   xmlns:rdf="http://www.w3.org/1999/02/22-rdf-syntax-ns#"
   xmlns:svg="http://www.w3.org/2000/svg"
   xmlns="http://www.w3.org/2000/svg"
   xmlns:sodipodi="http://sodipodi.sourceforge.net/DTD/sodipodi-0.dtd"
   xmlns:inkscape="http://www.inkscape.org/namespaces/inkscape"
   width="704.5191"
   height="248.43294"
   id="svg2"
   version="1.1"
   inkscape:version="0.48.5 r10040"
   sodipodi:docname="renaud.svg">
  <defs
     id="defs4" />
  <sodipodi:namedview
     id="base"
     pagecolor="#ffffff"
     bordercolor="#666666"
     borderopacity="1.0"
     inkscape:pageopacity="0.0"
     inkscape:pageshadow="2"
     inkscape:zoom="0.5"
     inkscape:cx="365.31299"
     inkscape:cy="-20.738048"
     inkscape:document-units="px"
     inkscape:current-layer="g3083"
     showgrid="false"
     inkscape:window-width="1366"
     inkscape:window-height="706"
     inkscape:window-x="-8"
     inkscape:window-y="-8"
     inkscape:window-maximized="1"
     inkscape:object-paths="true"
     width="1052.36px"
     showborder="true"
     fit-margin-top="0"
     fit-margin-left="0"
     fit-margin-right="0"
     fit-margin-bottom="0" />
  <metadata
     id="metadata7">
    <rdf:RDF>
      <cc:Work
         rdf:about="">
        <dc:format>image/svg+xml</dc:format>
        <dc:type
           rdf:resource="http://purl.org/dc/dcmitype/StillImage" />
      </cc:Work>
    </rdf:RDF>
  </metadata>
  <g
     inkscape:label="Calque 1"
     inkscape:groupmode="layer"
     id="layer1"
     transform="translate(-9.6870058,-316.60872)">
    <g
       id="g3083"
       transform="matrix(0.65610738,0.29205233,-0.05763816,0.70311254,28.296215,83.20638)">
      <path
         inkscape:connector-curvature="0"
         d="m 236.1938,497.65586 c -12.06295,18.03967 -20.93899,37.85087 -28.25347,58.20871 -3.28862,11.36512 -7.33592,22.52331 -9.71818,34.12707 -0.0798,0.58987 -1.08828,6.42275 -0.52517,7.53251 0.22523,0.44387 1.97259,-0.19617 1.47582,-0.22744 -14.95471,-0.94133 -30.15175,0.23693 -44.88308,-2.50485 -3.35635,-0.62468 6.38766,-2.46695 9.38459,-4.10209 5.75864,-3.14193 11.22,-6.80045 16.83,-10.20068 63.00323,-39.96767 126.38868,-79.32755 190.12535,-118.11875 26.6041,-16.1917 53.10454,-32.56314 80.01365,-48.24271 29.45788,-17.16469 59.38,-33.51998 89.06999,-50.27998 C 673.61099,289.0701 810.75179,220.42064 947.8796,151.841 c 0,0 30.6348,3.52805 30.6348,3.52805 l 0,0 c -40.89797,16.77555 -58.17834,23.59154 -100.84735,42.4389 -113.14736,49.97841 -224.2035,104.78777 -331.31822,166.73581 -28.32911,16.88965 -57.02034,33.18619 -84.98731,50.66895 -25.09134,15.68513 -49.60712,32.27733 -74.14823,48.81009 -56.44557,38.02603 -111.83737,77.706 -164.79161,120.48685 -4.36914,3.64229 -8.71137,7.31711 -13.10743,10.92686 -2.3253,1.90939 -4.05807,5.36966 -7.05559,5.62971 -17.66421,1.53244 -51.67358,13.91762 -53.05871,-3.75876 -0.10235,-1.30614 0.93072,-7.32143 1.07758,-8.25729 2.34408,-12.14718 7.72807,-23.32829 11.99144,-34.88524 8.27901,-19.68679 17.82911,-38.83912 25.54767,-58.75367 0,0 48.37716,2.2446 48.37716,2.2446 z"
         id="path3017"
         style="fill:#ffffff" />
      <path
         inkscape:connector-curvature="0"
         d="m 112.13236,523.88466 c -16.777335,-2.76975 -33.634186,-5.59731 -49.691093,-11.39837 -12.200405,-4.40778 -14.393715,-6.0896 -25.53812,-12.07521 -3.275792,-2.71818 -6.855078,-5.10745 -9.827374,-8.15454 -9.421531,-9.65863 -14.373081,-21.9936 -15.29213,-35.39607 -1.005038,-14.65645 1.302827,-21.28403 4.068787,-35.95137 2.04992,-6.70636 3.563743,-13.60064 6.149761,-20.11907 13.318003,-33.56994 39.385944,-63.65838 66.05594,-87.42377 7.435905,-6.62607 15.455789,-12.56616 23.183679,-18.84924 21.78439,-15.63301 45.34766,-28.73168 70.64304,-37.76443 10.05896,-3.59196 28.63822,-8.88141 39.80375,-9.31155 19.43419,-0.74868 38.89708,0.0946 58.34563,0.14191 4.71643,1.15913 9.61887,1.72714 14.14931,3.47741 11.97704,4.62716 20.61628,13.9909 24.6396,26.11287 3.9587,11.92727 2.61989,16.3211 2.21426,28.98058 -1.24353,5.84434 -1.99427,11.81568 -3.73059,17.53301 -6.37698,20.99812 -18.09797,39.72587 -29.74586,58.09376 -10.9924,17.33425 -11.92051,18.27933 -23.381,34.6572 -10.10194,14.05702 -20.45285,27.92741 -31.83087,40.9781 0,0 -46.00539,-3.58541 -46.00539,-3.58541 l 0,0 c 13.43017,-12.16579 25.48628,-25.65703 36.59287,-39.98575 19.91377,-26.46744 43.62627,-58.47455 51.89287,-90.94593 1.39687,-5.48694 1.80421,-11.17927 2.70631,-16.76891 -0.26319,-11.48674 0.74562,-16.17931 -3.51071,-26.78001 -4.25993,-10.60966 -12.67777,-18.65113 -23.47721,-22.39523 -4.14059,-1.43553 -8.56504,-1.86037 -12.84757,-2.79056 8.37334,-0.26915 17.13329,-3.33677 25.12002,-0.80745 6.38379,2.02168 -13.36381,1.18088 -19.93906,2.44821 -34.2802,6.60725 -65.93328,22.57427 -94.60056,42.02587 -7.71342,6.16593 -15.74379,11.95502 -23.14026,18.49779 -26.513351,23.45321 -49.91709,52.00518 -62.067846,85.63025 -2.306087,6.38168 -3.644955,13.0725 -5.467433,19.60874 -1.808029,14.08798 -3.654718,20.52709 -1.824449,34.36616 1.6171,12.22725 6.894746,23.73881 15.801196,32.34451 2.857789,2.76129 6.254442,4.90394 9.381663,7.35591 3.774683,2.00677 7.437283,4.24031 11.32405,6.02031 21.025439,9.62888 44.179919,13.34333 67.067669,15.00524 0,0 -47.22288,7.22504 -47.22288,7.22504 z"
         id="path3019"
         style="fill:#ffffff" />
      <path
         inkscape:connector-curvature="0"
         d="m 167.64429,464.95812 c -3.27242,-9.83181 -6.07739,-19.73222 -8.09795,-29.90012 -1.38814,-8.61798 -2.71818,-15.33631 1.47339,-23.33981 3.52347,-4.47336 9.17949,-7.07128 14.92714,-7.11299 52.64687,-0.38203 36.45827,-4.93629 59.31137,2.49806 14.79963,5.33257 27.06355,14.96501 37.95075,26.06726 3.59219,4.34826 7.46383,8.69069 10.31924,13.5948 2.238,3.84372 3.90212,8.19285 5.58221,12.30209 1.14937,3.90755 1.97692,7.90123 2.56284,11.93002 0.4274,2.93879 0.39346,5.20159 2.14862,7.6261 1.63271,0.47283 2.97258,0.96022 4.7467,0.94392 1.55243,-0.0143 6.18592,-0.3981 4.63467,-0.46055 -13.2043,-0.53154 -26.51202,0.61975 -39.63366,-0.94834 -3.2343,-0.38651 6.33043,-1.57933 9.40167,-2.66449 3.57306,-1.26248 6.99784,-2.91083 10.49676,-4.36624 12.04901,-5.82412 23.37076,-13.02452 34.27089,-20.75192 0,0 46.13285,4.47197 46.13285,4.47197 l 0,0 c -11.46407,7.72718 -23.39269,14.77736 -35.50945,21.43342 -28.87636,14.40624 -24.31124,9.43826 -72.39085,10.08476 -4.86634,0.0654 -8.43367,-1.63405 -11.05227,-5.56906 -2.20581,-6.4449 -1.38015,-13.52816 -4.06217,-19.90323 -3.41666,-8.8676 -8.02698,-17.11501 -14.61462,-24.06385 -10.64087,-10.76354 -22.77058,-19.62001 -37.65655,-23.50936 -20.28952,-3.68246 -9.3049,-1.24993 34.75836,-1.67794 1.54034,-0.015 -3.08592,-0.0393 -4.62017,0.0983 -3.16308,0.28363 -6.38453,1.00208 -9.04194,2.78981 -4.77664,5.50597 -3.18704,12.97493 -2.29506,19.65781 1.66373,9.89303 4.22458,19.67958 9.15743,28.50069 0,0 -48.9002,2.26887 -48.9002,2.26887 z"
         id="path3021"
         style="fill:#ffffff" />
      <path
         inkscape:connector-curvature="0"
         d="m 321.08478,416.73667 c 9.67802,-0.44231 19.00218,-2.49266 27.94359,-6.15978 6.75019,-3.16678 12.61079,-7.21332 15.82817,-14.05356 2.32772,-5.87815 -0.7453,-7.37574 -4.99685,-10.74644 -4.76009,-3.42512 -10.26592,-4.20907 -15.94971,-4.53755 88.00744,2.0715 49.65899,-4.34965 34.63677,3.13336 -7.23291,3.60292 -12.62368,8.93989 -18.17977,14.65417 -7.02848,9.07158 -15.69543,18.71702 -17.87824,30.37485 0.26113,0.61748 0.22052,1.48822 0.78339,1.85243 0.83117,0.53782 1.94778,0.35591 2.91979,0.54379 1.6752,0.32378 3.3329,0.74828 5.02172,0.99117 2.72151,0.39141 10.94712,0.85513 8.19816,0.91014 -53.59108,1.07249 -35.35138,-0.138 -15.68851,-2.14361 39.44791,-6.49898 76.58613,-22.07523 109.72254,-44.31037 6.37764,-4.27951 12.40703,-9.05648 18.61054,-13.58472 15.41106,-12.23405 29.00329,-26.33499 40.87152,-41.96866 0,0 45.48141,3.17552 45.48141,3.17552 l 0,0 c -14.22423,15.56977 -29.82505,29.74303 -46.59518,42.56096 -16.21148,11.60854 -22.95248,17.03936 -40.47072,27.06761 -26.53827,15.19174 -55.14735,26.73631 -85.05004,33.24333 -31.98788,5.08002 -18.04492,3.67308 -72.51606,2.56341 -6.16599,-0.12561 -15.97086,-1.5319 -19.19185,-7.9935 -0.60746,-1.21861 -0.34424,-2.7014 -0.51636,-4.0521 3.50722,-12.42942 12.38107,-22.60702 20.06323,-32.68864 6.44904,-7.31323 13.21083,-15.06308 22.10514,-19.52032 16.64379,-8.34076 45.2847,8.0305 55.819,-1.86931 6.11074,1.03535 11.63562,3.19066 16.28742,7.44024 5.39486,5.07183 7.84087,9.54837 5.14703,16.92417 -3.66116,8.77114 -8.5672,12.94156 -16.89364,17.46172 -8.39608,4.34722 -17.51276,7.04087 -26.9687,7.80264 0,0 -48.54379,-7.07095 -48.54379,-7.07095 z"
         id="path3023"
         style="fill:#ffffff" />
      <path
         inkscape:connector-curvature="0"
         d="m 467.41049,321.19979 c 8.23466,5.70777 16.87558,10.79296 25.19851,16.3703 3.25829,1.98646 5.49026,5.09926 8.34627,7.54413 12.84331,10.99445 64.63841,-2.39637 -46.55101,5.49889 -7.71857,-9.98042 -16.23007,-19.37439 -24.47267,-28.93784 -4.43878,-6.01746 -12.67669,-13.90373 -13.84501,-21.70492 -0.18056,-1.20566 0.0201,-2.43812 0.0301,-3.65718 0.29356,-1.04918 0.37183,-2.1842 0.88069,-3.14753 3.36662,-6.37346 14.9446,-11.56 21.11969,-14.74479 8.1732,-4.45363 16.95835,-7.22699 26.11575,-8.65713 20.04485,-1.57186 43.70094,-9.43246 60.60157,2.78232 10.44184,7.54674 17.67594,18.59633 25.25123,28.74726 19.55405,28.59014 38.19081,57.81108 56.30408,87.33353 17.64832,27.74026 5.74491,15.96658 -42.61769,17.79012 0,0 49.26408,-6.15558 49.26408,-6.15558 l 0,0 c -16.21374,0.80666 -32.44175,1.36498 -48.64122,2.41998 -0.31927,0.0208 0.5342,1.00333 0.65088,0.70542 0.24309,-0.62066 0.007,-1.34558 -0.14603,-1.99439 -0.80721,-3.42605 -2.65625,-7.44801 -3.91987,-10.54346 -13.94077,-30.97247 -32.07694,-60.09249 -53.2898,-86.60054 -7.82272,-8.42652 -12.96316,-14.98473 -22.11458,-21.57142 -2.4759,-1.78201 -5.19793,-3.23886 -8.00096,-4.44249 -1.71307,-0.73561 -7.29607,-1.24615 -5.43346,-1.32633 13.29163,-0.5721 61.17077,-0.95604 39.91152,-0.15095 -9.27785,0.76404 -18.35614,2.67462 -26.7484,6.87917 -6.04543,3.02249 -11.77083,6.15835 -17.34298,9.98334 -0.68985,0.47355 -1.47746,0.82358 -2.08255,1.4015 -0.43765,0.418 -0.65536,1.01763 -0.98304,1.52644 -0.89488,7.40378 7.73845,16.23412 11.60152,21.8413 8.50277,10.14255 17.40005,19.95761 27.40948,28.65187 -65.19836,6.45772 -35.00822,13.78213 -59.02121,-4.7899 -8.3966,-5.6946 -16.92032,-11.33523 -26.12796,-15.64238 0,0 48.65308,-5.40874 48.65308,-5.40874 z"
         id="path3025"
         style="fill:#ffffff" />
      <path
         inkscape:connector-curvature="0"
         d="m 571.5368,244.8453 c -0.967,-0.0142 -1.93399,-0.0285 -2.90099,-0.0427 14.64015,0.0272 29.28104,-0.0685 43.92044,0.0815 1.51448,0.0155 -3.02632,0.16067 -4.53227,0.32196 -4.2556,0.45578 -8.13383,1.49786 -12.16765,2.8666 -8.02899,3.3721 -10.63396,11.25142 -12.78072,19.04242 -1.57065,6.79179 -1.8594,13.76166 -1.91241,20.70256 -0.0745,5.83336 4.97721,7.51423 9.35202,9.89586 7.45135,2.71263 15.6171,2.76714 23.46399,3.07624 17.1538,0.3093 42.48258,0.6569 -37.80976,0.008 -1.32192,-0.0107 3.15512,-0.15318 5.96336,-1.66298 8.58679,-7.49238 10.07215,-20.56928 12.01526,-31.1639 1.29494,-8.60091 1.94431,-17.29629 2.07106,-25.99148 0.0146,-0.99816 -1.01883,-2.87763 -0.0274,-2.99466 16.7074,-1.97226 33.5893,-1.96651 50.38395,-2.94976 6.21451,11.19633 15.30439,20.478 24.17544,29.59497 6.03961,5.54231 11.07171,10.24109 19.64211,9.75217 -75.43062,0.47371 -49.79139,4.98052 -32.85542,-5.79362 7.23129,-4.60033 13.02559,-10.44955 18.83528,-16.66173 6.30929,-6.90266 11.5976,-14.5988 16.31546,-22.64357 0,0 47.40957,2.61649 47.40957,2.61649 l 0,0 c -5.28866,8.23658 -11.05772,16.12407 -17.59073,23.43373 -7.29264,8.2689 -14.77778,15.77265 -23.91797,22.00261 -1.51487,1.03253 -2.77341,2.87799 -4.6018,3.01194 -17.19745,1.25997 -34.47908,0.74291 -51.71862,1.11436 -7.78495,-2.09118 -13.49846,-7.25711 -18.7228,-13.2751 -4.48824,-4.99294 -8.93923,-10.01608 -13.37378,-15.05678 -1.31393,-1.49352 -7.06964,-8.24501 -8.96672,-9.63381 -0.9863,-0.72205 -2.28101,-0.87955 -3.42152,-1.31932 15.73618,-1.10795 31.43622,-3.02559 47.20854,-3.32385 0.88285,-0.0167 -0.83043,1.58498 -1.00697,2.45016 -0.34959,1.71324 -0.35813,3.47878 -0.5573,5.21595 -0.81377,7.09771 -1.79954,14.17438 -2.82147,21.24462 -1.83971,11.37425 -3.13041,25.11104 -9.65095,34.84773 -1.61728,1.60479 -4.01608,4.35475 -6.55589,4.42063 -19.32097,0.50118 -38.72931,1.1295 -58.05178,0.0266 -8.2792,-0.61175 -16.95418,-1.0175 -24.30377,-5.28647 -5.69022,-3.5772 -9.70938,-7.9596 -9.68919,-15.08413 0.32768,-7.33172 1.09264,-14.64358 2.78722,-21.79988 2.17383,-8.73613 4.68943,-18.45688 12.81353,-23.46572 5.15703,-2.55367 11.01694,-4.67338 16.85735,-4.76596 18.43122,-0.29215 36.86637,-0.25965 55.29829,-0.50493 0,0 -48.57494,7.69351 -48.57494,7.69351 z"
         id="path3027"
         style="fill:#ffffff" />
      <path
         inkscape:connector-curvature="0"
         d="m 721.29741,186.38053 c 7.99409,11.05042 17.30759,21.07992 27.21465,30.42502 4.52729,3.80775 8.45303,9.0211 14.02907,11.47233 1.37392,0.60398 2.87663,0.92314 4.36783,1.09273 1.49711,0.17025 6.02614,-0.0606 4.51953,-0.082 -14.23231,-0.20228 -28.46584,-0.30707 -42.69876,-0.46061 8.08534,-0.97547 14.72922,-5.07173 20.02751,-11.0649 4.16877,-5.86083 4.24631,-13.20499 4.58523,-20.11957 0.67649,-15.01705 -2.89231,-29.73084 -7.66329,-43.85397 -8.37695,-23.81951 -15.87972,-13.6473 45.87966,-13.64568 1.32882,3e-5 1.26119,2.34901 2.04546,3.42171 0.96625,1.32162 2.12526,2.4909 3.18789,3.73635 7.97332,8.85151 16.29818,17.49257 25.21404,25.40635 2.62313,1.96553 5.39166,4.13137 8.74402,4.6641 0.9141,0.14526 3.70208,0.0372 2.77657,0.0268 -46.00346,-0.51946 -59.37855,0.76585 -40.13836,-0.87711 8.30006,-1.60529 15.68859,-5.72089 22.9849,-9.7843 0,0 46.74942,4.92352 46.74942,4.92352 l 0,0 c -7.17351,4.24933 -14.28365,8.56855 -22.08755,11.59955 -22.2322,5.65383 -49.9762,10.20857 -66.8994,-6.68918 -8.25773,-8.60289 -16.36702,-17.35685 -25.02415,-25.56611 -1.29462,-1.16041 -2.45546,-2.49013 -3.88386,-3.48122 -0.86281,-0.59867 -3.94505,-1.10724 -2.90174,-1.22699 54.00746,-6.19898 44.06033,-18.15736 50.71637,6.12602 3.80397,14.79522 6.75333,29.8571 7.69314,45.13125 0.67675,8.25256 0.90524,16.19775 -3.49161,23.5591 -5.48747,7.05086 -12.54399,12.0587 -21.10096,14.83771 -17.40331,0.0992 -34.80831,0.55903 -52.20994,0.29755 -1.61088,-0.0242 -3.19096,-0.57192 -4.69374,-1.15258 -7.16232,-2.76745 -11.81006,-9.5257 -17.21675,-14.55965 -10.09747,-10.06033 -19.54818,-20.73739 -29.69234,-30.74874 0,0 48.96716,-3.40742 48.96716,-3.40742 z"
         id="path3029"
         style="fill:#ffffff" />
      <path
         inkscape:connector-curvature="0"
         d="m 893.18747,119.7434 c -10.55159,11.38752 -15.08863,26.31994 -18.45651,41.11123 -1.88523,10.98146 -3.80975,22.91317 0.70109,33.48774 3.64638,5.34572 9.31007,4.34034 15.14149,4.48077 16.53792,-0.0777 43.44616,1.2756 -32.30461,-0.11094 -1.79604,-0.0329 3.58555,-0.26124 5.36531,-0.50464 4.14571,-0.56699 4.53517,-0.83648 8.29525,-1.98575 1.98557,-0.92737 3.51068,-1.44377 5.1445,-2.95458 5.51981,-5.10421 5.26294,-15.58426 6.03839,-22.26989 1.93927,-22.3801 -1.99038,-44.90916 -10.87924,-65.53192 -1.86299,-4.32227 -4.15425,-8.447086 -6.23138,-12.670626 -5.58592,-10.11782 -12.53699,-19.300215 -20.54392,-27.606034 -4.37275,-4.535979 -9.24266,-8.388092 -13.29735,-13.207911 0.52714,-1.776519 -0.27042,-5.261661 1.58141,-5.329558 17.77902,-0.65186 35.63934,0.93291 53.26965,3.318468 3.06137,0.414234 5.25323,3.253764 7.83538,4.949658 3.39719,2.231184 6.74328,4.539304 10.10051,6.830169 13.43379,9.166783 10.27969,7.027676 23.82654,16.762422 18.83547,13.211546 37.61214,26.795982 58.10215,37.368182 4.59269,1.87692 6.314,2.77362 10.9584,3.99307 14.07107,3.69453 61.70677,2.09014 -27.9255,1.29515 11.19999,-0.79468 21.74756,-4.27422 31.22177,-10.21757 4.1167,-3.10582 2.2309,-1.50889 5.6992,-4.74119 0,0 48.2617,3.84854 48.2617,3.84854 l 0,0 c -3.8088,3.89336 -1.7438,2.00269 -6.2332,5.62989 -9.6018,6.57543 -20.1906,10.86696 -31.7444,12.64505 -10.5783,0.0608 -43.68456,3.60942 -62.34159,-1.24274 -5.1117,-1.32941 -9.85023,-3.76735 -14.46095,-6.27333 -18.9354,-11.73333 -36.55831,-25.446299 -54.84003,-38.145019 -11.72328,-8.073468 -23.4678,-16.234662 -36.11608,-22.835591 -3.09722,-1.61639 -12.95554,-3.79318 -9.51434,-4.396221 42.20766,-7.396542 47.81114,12.677948 40.70294,-6.504294 2.85405,4.883947 7.07215,8.682456 10.62292,13.066592 7.23214,8.929522 13.30774,18.668241 18.64225,28.838959 2.02527,4.36559 4.25845,8.64062 6.07582,13.096774 8.70136,21.33549 13.22351,44.36444 13.29319,67.38075 -0.19036,7.4974 0.89297,19.5161 -3.6832,26.06017 -1.76281,2.52086 -3.18424,3.0906 -5.70416,4.7253 -4.49218,1.85949 -9.4153,3.71416 -14.36139,3.82126 -20.77711,0.44988 -41.78339,0.90792 -62.63326,0.13256 -7.81276,-0.84615 -12.79056,-2.21131 -15.73388,-10.16381 -3.05835,-11.92403 -1.1253,-24.22967 1.43609,-36.10053 3.57507,-14.95154 7.69726,-30.04654 15.96091,-43.19055 0,0 48.72813,3.13999 48.72813,3.13999 z"
         id="path3031"
         style="fill:#ffffff" />
    </g>
  </g>
</svg>
